<svg xmlns="http://www.w3.org/2000/svg" viewBox="0 0 261.34 234.75">
    <defs>
        <style>
        .cls-1{
        }
        .cls-2{
            fill:#00eaff;
            animation: aiseeloading .4s linear infinite;
        }
        @keyframes aiseeloading {
            0% { fill: hsl(0,100%,50%); }
            10% { fill: hsl(36,100%,50%); }
            20% { fill: hsl(72,100%,50%); }
            30% { fill: hsl(108,100%,50%); }
            40% { fill: hsl(144,100%,50%); }
            50% { fill: hsl(180,100%,50%); }
            60% { fill: hsl(216,100%,50%); }
            70% { fill: hsl(252,100%,50%); }
            80% { fill: hsl(288,100%,50%); }
            90% { fill: hsl(324,100%,50%); }
            100% { fill: hsl(360,100%,50%); }
        }
        </style>
    </defs>
    <title></title>
    <g id="Layer_2" data-name="Layer 2" class="cls-2">
        <g id="Layer_1-2" data-name="Layer 1">
            <path class="cls-1" d="M154.34,100.25a26.67,26.67,0,1,0-2,10.23,26.79,26.79,0,0,0,2-10.23h-14a12.81,12.81,0,0,1-1,4.88,12.92,12.92,0,0,1-7,7,12.93,12.93,0,0,1-9.77,0,12.92,12.92,0,0,1-7-7,12.93,12.93,0,0,1,0-9.77,12.92,12.92,0,0,1,7-7,12.93,12.93,0,0,1,9.77,0,12.92,12.92,0,0,1,7,7,12.81,12.81,0,0,1,1,4.88Z"/>
            <path class="cls-1" d="M172.95,100.25a45.28,45.28,0,1,0-3.44,17.36,45.42,45.42,0,0,0,3.44-17.36H159a31.32,31.32,0,1,1-2.38-12,31.45,31.45,0,0,1,2.38,12Z"/>
            <path class="cls-1" d="M193.42,100.25a65.74,65.74,0,1,0-5,25.2,65.92,65.92,0,0,0,5-25.2h-4.65a61.09,61.09,0,1,1-4.65-23.42,61.26,61.26,0,0,1,4.65,23.42Z"/>
            <path class="cls-1" d="M117.82,162.56a64.64,64.64,0,0,0,14.77.53l-1.39-17.62a47,47,0,0,1-10.68-.38Z"/>
            <path class="cls-1" d="M78.91,60.15A63,63,0,0,0,91,151.59a62.38,62.38,0,0,0,32,11.53l1.26-17.63a44.67,44.67,0,0,1-23-8.28,45.65,45.65,0,0,1-15.42-19.1,44.85,44.85,0,0,1-3.24-11.89,46.19,46.19,0,0,1-.4-6.22,48.77,48.77,0,0,1,.46-6.22A45.38,45.38,0,0,1,92.54,71.4Z"/>
            <path class="cls-1" d="M81.25,57.49c-.73.76-1.39,1.59-2.1,2.38s-1.31,1.66-2,2.48L91.3,73c.49-.59.93-1.21,1.42-1.79s1-1.17,1.51-1.72Z"/>
            <path class="cls-1" d="M151,41.72,149.18,41l-1.87-.63c-1.24-.46-2.53-.75-3.79-1.13a64.09,64.09,0,0,0-7.77-1.49,62.46,62.46,0,0,0-15.83-.07,61.36,61.36,0,0,0-15.31,3.85,60.72,60.72,0,0,0-13.87,7.56l10.34,14.34a43.08,43.08,0,0,1,10-5.44,43.68,43.68,0,0,1,11-2.76,44.82,44.82,0,0,1,11.44,0,46.41,46.41,0,0,1,5.58,1.06c.9.29,1.83.47,2.72.82l1.35.45,1.32.53Z"/>
            <path class="cls-1" d="M188.77,100.25a62.68,62.68,0,0,0-1-11.23l-15.55,2.88a46.86,46.86,0,0,1,.78,8.35Z"/>
            <path class="cls-1" d="M199.93,100.25h27.91a106.91,106.91,0,0,0-1.27-15.9A89.26,89.26,0,0,0,213.31,76,88.86,88.86,0,0,0,197.8,45.44c.2-1.25.39-2.53.54-3.8s.26-2.55.36-3.86c.22-2.63.25-5.23.24-7.94A100.11,100.11,0,0,0,124.15.06a91.91,91.91,0,0,0-9.91,12.08A89.39,89.39,0,0,0,77.59,26.48a90.71,90.71,0,0,0-15.48-2.15A100.09,100.09,0,0,0,27.66,91.93q1.28,1.56,2.57,3c.88,1,1.8,2,2.7,2.89s1.8,1.84,2.74,2.73,1.9,1.74,2.85,2.57a88.86,88.86,0,0,0,7.67,33.41q-.74,1.75-1.44,3.57t-1.27,3.66c-.84,2.5-1.5,5-2.13,7.66a100.33,100.33,0,0,0,20.41,24.43c1.35-.07,2.66-.15,4-.27s2.64-.29,3.93-.46c2.56-.32,5.14-.84,7.59-1.36a88.64,88.64,0,0,0,31.5,13.55c1.29,2.21,2.71,4.3,4.23,6.47s3.17,4.19,4.92,6.23a100.07,100.07,0,0,0,65.92-16.8,90.24,90.24,0,0,0,1.92-15.54,89.35,89.35,0,0,0,13.46-14.48,90.32,90.32,0,0,0,9.93-17.12c2.44-.81,4.76-1.79,7.19-2.85s4.74-2.27,7.11-3.57a105.34,105.34,0,0,0,3.3-14.59,108.38,108.38,0,0,0,1.1-14.86H199.93a72.26,72.26,0,1,1-5.5-27.69A72.44,72.44,0,0,1,199.93,100.25Zm.7,13c.26-1.34.44-2.68.6-4s.27-2.71.38-4.06l13,.85c-.12,1.59-.22,3.19-.45,4.77s-.4,3.17-.71,4.74Zm-6.86,20.53c.38-.74.77-1.47,1.09-2.23l11.81,5.5c-.39.9-.84,1.76-1.28,2.63Zm-2.39,4.36,1.24-2.16L204,142.29l-1.46,2.54Zm-8.86,12,1.63-1.88,9.93,8.43-1.92,2.21ZM175.35,157l1.88-1.63,8.72,9.68L183.74,167Zm-51.13,17.36a73.37,73.37,0,0,0,14-.69l1.85,12.89a86.38,86.38,0,0,1-16.43.81Zm-19-3.35c.79.25,1.59.46,2.39.69l-3.5,12.55c-.94-.27-1.88-.52-2.81-.82ZM80.13,157.33a74.1,74.1,0,0,0,13.61,9L87.79,177.9a87.12,87.12,0,0,1-16-10.56ZM56.88,122.9a74.8,74.8,0,0,0,6.66,14.88l-11.23,6.6a87.83,87.83,0,0,1-7.84-17.51Zm4.56,34.24c-.64-.74-1.28-1.47-1.87-2.24l10.15-8.16c.5.66,1.05,1.28,1.59,1.91M54,109.55c.11.82.19,1.65.34,2.46l-12.86,2c-.17-1-.27-1.93-.4-2.9Zm-.58-10c0,.83,0,1.66,0,2.49l-13,.31c0-1-.07-1.94,0-2.92Zm.3-6L53.48,96l-13-.73.22-2.91ZM70.5,52.81a73.3,73.3,0,0,0-8.34,12.35L50.69,59a86.32,86.32,0,0,1,9.8-14.51Zm4-4.4-1.72,1.8-9.62-8.79,2-2.12Zm4.32-4.07c-.63.54-1.26,1.08-1.85,1.66l-8.89-9.52c.7-.68,1.43-1.32,2.17-2Zm4.62-3.73c-.67.49-1.31,1-2,1.52l-8.1-10.2c.77-.6,1.52-1.21,2.31-1.79Zm4.91-3.33L86.24,38.6,79,27.79l2.46-1.58Zm13.36-6.58-2.31.91-5-12,2.72-1.07Zm9.53-2.82c-.81.19-1.62.36-2.42.57l-3.28-12.6c.94-.24,1.9-.45,2.85-.67Zm4.88-.94-2.45.44-2.43-12.8,2.88-.51Zm15.77-.75a77.61,77.61,0,0,0-13,.38l-1.5-12.94a90.62,90.62,0,0,1,15.21-.45Zm40.49,14.93c-.65-.52-1.34-1-2-1.46L177.89,29c.79.57,1.6,1.11,2.36,1.72ZM198.06,77l-.8-2.35,12.23-4.49.95,2.77Zm1.41,4.77-.68-2.39,12.5-3.65.79,2.82Z"/>
            <path class="cls-1" d="M193.23,199.91a119.47,119.47,0,0,1-116.5,8.33l4-8.42a110.17,110.17,0,0,0,107.41-7.68Z"/>
            <path class="cls-1" d="M28.2,53a110.35,110.35,0,0,0-10,35.38l-9.25-1A119.66,119.66,0,0,1,19.8,49Z"/>
            <path class="cls-1" d="M236.62,85.59a108.76,108.76,0,0,0-16.41-44.71l7.83-5a118.06,118.06,0,0,1,17.8,48.5Z"/>
            <path class="cls-1" d="M205.22,178.22a109.9,109.9,0,0,0,32.4-78h9.3a119.2,119.2,0,0,1-35.13,84.56Z"/>
            <path class="cls-1" d="M260.38,122.65c.42-2.23.66-4.47,1-6.7l-11.09-1.29c-.27,2.05-.49,4.11-.87,6.15Z"/>
            <path class="cls-1" d="M254.78,144.55c.73-2.14,1.47-4.29,2.07-6.47l-10.72-3.13c-.55,2-1.23,4-1.9,5.93Z"/>
            <path class="cls-1" d="M245.58,165.19c1.09-2,2.1-4,3.12-6l-10-4.89c-.94,1.85-1.86,3.71-2.86,5.52Z"/>
            <path class="cls-1" d="M158.28,231.4c2.21-.49,4.4-1.08,6.57-1.71L161.76,219c-2,.58-4,1.12-6,1.57Z"/>
            <path class="cls-1" d="M136,234.67c2.24-.17,4.49-.3,6.73-.59L141.45,223c-2.05.27-4.11.37-6.17.54Z"/>
            <path class="cls-1" d="M113.56,234.22c2.24.22,4.48.38,6.73.53l.6-11.15c-2.06-.14-4.12-.29-6.17-.48Z"/>
            <polygon class="cls-1" points="2.34 50.65 1.11 53.82 0 57.03 10.57 60.61 11.59 57.67 12.72 54.77 2.34 50.65"/>
            <polygon class="cls-1" points="247.46 38.86 245.89 35.86 244.22 32.91 234.55 38.5 236.09 41.2 237.52 43.96 247.46 38.86"/>
            <path class="cls-1" d="M256.05,59.77c-.71-2.15-1.42-4.3-2.21-6.43l-10.47,3.89c.72,1.95,1.37,3.92,2,5.89Z"/>
            <path class="cls-1" d="M261,81.82c-.27-2.24-.7-4.46-1.09-6.69l-11,2.08c.36,2,.76,4.08,1,6.13Z"/>
        </g>
    </g>
</svg>